<?xml version="1.0" encoding="us-ascii" standalone="no"?><svg xmlns="http://www.w3.org/2000/svg" xmlns:xlink="http://www.w3.org/1999/xlink" contentStyleType="text/css" height="1205px" preserveAspectRatio="none" style="width:402px;height:1205px;background:#FFFFFF;" version="1.1" viewBox="0 0 402 1205" width="402px" zoomAndPan="magnify"><defs/><g><ellipse cx="194" cy="20" fill="#222222" rx="10" ry="10" style="stroke:#222222;stroke-width:1.0;"/><rect fill="#F1F1F1" height="33.9688" rx="12.5" ry="12.5" style="stroke:#181818;stroke-width:0.5;" width="273" x="57.5" y="50"/><text fill="#000000" font-family="sans-serif" font-size="12" lengthAdjust="spacing" textLength="253" x="67.5" y="71.1387">Output 'Initializing File Allocation Table...'</text><rect fill="#F1F1F1" height="33.9688" rx="12.5" ry="12.5" style="stroke:#181818;stroke-width:0.5;" width="268" x="60" y="103.9688"/><text fill="#000000" font-family="sans-serif" font-size="12" lengthAdjust="spacing" textLength="248" x="70" y="125.1074">Define and initialize a FATable structure</text><rect fill="#F1F1F1" height="33.9688" rx="12.5" ry="12.5" style="stroke:#181818;stroke-width:0.5;" width="226" x="81" y="157.9375"/><text fill="#000000" font-family="sans-serif" font-size="12" lengthAdjust="spacing" textLength="206" x="91" y="179.0762">Set free_count to MAX_CLUSTERS</text><rect fill="#F1F1F1" height="33.9688" rx="12.5" ry="12.5" style="stroke:#181818;stroke-width:0.5;" width="224" x="82" y="211.9063"/><text fill="#000000" font-family="sans-serif" font-size="12" lengthAdjust="spacing" textLength="204" x="92" y="233.0449">Output 'Free clusters calculated'</text><rect fill="#F1F1F1" height="33.9688" rx="12.5" ry="12.5" style="stroke:#181818;stroke-width:0.5;" width="342" x="23" y="265.875"/><text fill="#000000" font-family="sans-serif" font-size="12" lengthAdjust="spacing" textLength="322" x="33" y="287.0137">Create a pointer to FATable and calculate total size</text><rect fill="#F1F1F1" height="33.9688" rx="12.5" ry="12.5" style="stroke:#181818;stroke-width:0.5;" width="339" x="24.5" y="319.8438"/><text fill="#000000" font-family="sans-serif" font-size="12" lengthAdjust="spacing" textLength="319" x="34.5" y="340.9824">Initialize variables written to 0 and sector_num to 0</text><rect fill="#F1F1F1" height="33.9688" rx="12.5" ry="12.5" style="stroke:#181818;stroke-width:0.5;" width="217" x="85.5" y="429.5229"/><text fill="#000000" font-family="sans-serif" font-size="12" lengthAdjust="spacing" textLength="197" x="95.5" y="450.6616">Output 'Init sector: sector_num'</text><rect fill="#F1F1F1" height="33.9688" rx="12.5" ry="12.5" style="stroke:#181818;stroke-width:0.5;" width="154" x="117" y="483.4917"/><text fill="#000000" font-family="sans-serif" font-size="12" lengthAdjust="spacing" textLength="134" x="127" y="504.6304">Initialize sector buffer</text><rect fill="#F1F1F1" height="33.9688" rx="12.5" ry="12.5" style="stroke:#181818;stroke-width:0.5;" width="234" x="77" y="585.8628"/><text fill="#000000" font-family="sans-serif" font-size="12" lengthAdjust="spacing" textLength="214" x="87" y="607.0015">Output 'Failed to allocate memory'</text><polygon fill="#F1F1F1" points="138,537.4604,250,537.4604,262,549.4604,250,561.4604,138,561.4604,126,549.4604,138,537.4604" style="stroke:#181818;stroke-width:0.5;"/><text fill="#000000" font-family="sans-serif" font-size="11" lengthAdjust="spacing" textLength="20" x="198" y="571.6709">yes</text><text fill="#000000" font-family="sans-serif" font-size="11" lengthAdjust="spacing" textLength="112" x="138" y="553.2686">sb.buffer == NULL?</text><rect fill="#F1F1F1" height="33.9688" rx="12.5" ry="12.5" style="stroke:#181818;stroke-width:0.5;" width="171" x="108.5" y="679.8315"/><text fill="#000000" font-family="sans-serif" font-size="12" lengthAdjust="spacing" textLength="151" x="118.5" y="700.9702">Calculate bytes_to_write</text><rect fill="#F1F1F1" height="33.9688" rx="12.5" ry="12.5" style="stroke:#181818;stroke-width:0.5;" width="141" x="123.5" y="733.8003"/><text fill="#000000" font-family="sans-serif" font-size="12" lengthAdjust="spacing" textLength="121" x="133.5" y="754.939">Copy data to buffer</text><rect fill="#F1F1F1" height="33.9688" rx="12.5" ry="12.5" style="stroke:#181818;stroke-width:0.5;" width="141" x="123.5" y="788.3667"/><text fill="#000000" font-family="sans-serif" font-size="12" lengthAdjust="spacing" textLength="121" x="133.5" y="809.5054">Mark buffer as dirty</text><rect fill="#F1F1F1" height="33.9688" rx="12.5" ry="12.5" style="stroke:#181818;stroke-width:0.5;" width="163" x="112.5" y="890.7378"/><text fill="#000000" font-family="sans-serif" font-size="12" lengthAdjust="spacing" textLength="143" x="122.5" y="911.8765">Write buffer to storage</text><rect fill="#F1F1F1" height="33.9688" rx="12.5" ry="12.5" style="stroke:#181818;stroke-width:0.5;" width="114" x="137" y="944.7065"/><text fill="#000000" font-family="sans-serif" font-size="12" lengthAdjust="spacing" textLength="94" x="147" y="965.8452">Reset dirty flag</text><rect fill="#F1F1F1" height="33.9688" rx="12.5" ry="12.5" style="stroke:#181818;stroke-width:0.5;" width="296" x="46" y="998.6753"/><text fill="#000000" font-family="sans-serif" font-size="12" lengthAdjust="spacing" textLength="276" x="56" y="1019.814">Output 'FATable data written to sector_num'</text><polygon fill="#F1F1F1" points="169.5,842.3354,218.5,842.3354,230.5,854.3354,218.5,866.3354,169.5,866.3354,157.5,854.3354,169.5,842.3354" style="stroke:#181818;stroke-width:0.5;"/><text fill="#000000" font-family="sans-serif" font-size="11" lengthAdjust="spacing" textLength="20" x="198" y="876.5459">yes</text><text fill="#000000" font-family="sans-serif" font-size="11" lengthAdjust="spacing" textLength="49" x="169.5" y="858.1436">sb.dirty?</text><polygon fill="#F1F1F1" points="194,1052.644,206,1064.644,194,1076.644,182,1064.644,194,1052.644" style="stroke:#181818;stroke-width:0.5;"/><rect fill="#F1F1F1" height="33.9688" rx="12.5" ry="12.5" style="stroke:#181818;stroke-width:0.5;" width="235" x="76.5" y="1096.644"/><text fill="#000000" font-family="sans-serif" font-size="12" lengthAdjust="spacing" textLength="215" x="86.5" y="1117.7827">Increment written and sector_num</text><polygon fill="#F1F1F1" points="136.5,373.8125,251.5,373.8125,263.5,385.8125,251.5,397.8125,136.5,397.8125,124.5,385.8125,136.5,373.8125" style="stroke:#181818;stroke-width:0.5;"/><text fill="#000000" font-family="sans-serif" font-size="11" lengthAdjust="spacing" textLength="20" x="198" y="408.0229">yes</text><text fill="#000000" font-family="sans-serif" font-size="11" lengthAdjust="spacing" textLength="115" x="136.5" y="389.6206">written &lt; total_size?</text><text fill="#000000" font-family="sans-serif" font-size="11" lengthAdjust="spacing" textLength="14" x="110.5" y="383.2183">no</text><ellipse cx="194" cy="1183.6128" fill="none" rx="11" ry="11" style="stroke:#222222;stroke-width:1.0;"/><ellipse cx="194" cy="1183.6128" fill="#222222" rx="6" ry="6" style="stroke:#222222;stroke-width:1.0;"/><line style="stroke:#181818;stroke-width:1.0;" x1="194" x2="194" y1="30" y2="50"/><polygon fill="#181818" points="190,40,194,50,198,40,194,44" style="stroke:#181818;stroke-width:1.0;"/><line style="stroke:#181818;stroke-width:1.0;" x1="194" x2="194" y1="83.9688" y2="103.9688"/><polygon fill="#181818" points="190,93.9688,194,103.9688,198,93.9688,194,97.9688" style="stroke:#181818;stroke-width:1.0;"/><line style="stroke:#181818;stroke-width:1.0;" x1="194" x2="194" y1="137.9375" y2="157.9375"/><polygon fill="#181818" points="190,147.9375,194,157.9375,198,147.9375,194,151.9375" style="stroke:#181818;stroke-width:1.0;"/><line style="stroke:#181818;stroke-width:1.0;" x1="194" x2="194" y1="191.9063" y2="211.9063"/><polygon fill="#181818" points="190,201.9063,194,211.9063,198,201.9063,194,205.9063" style="stroke:#181818;stroke-width:1.0;"/><line style="stroke:#181818;stroke-width:1.0;" x1="194" x2="194" y1="245.875" y2="265.875"/><polygon fill="#181818" points="190,255.875,194,265.875,198,255.875,194,259.875" style="stroke:#181818;stroke-width:1.0;"/><line style="stroke:#181818;stroke-width:1.0;" x1="194" x2="194" y1="299.8438" y2="319.8438"/><polygon fill="#181818" points="190,309.8438,194,319.8438,198,309.8438,194,313.8438" style="stroke:#181818;stroke-width:1.0;"/><line style="stroke:#181818;stroke-width:1.0;" x1="194" x2="194" y1="463.4917" y2="483.4917"/><polygon fill="#181818" points="190,473.4917,194,483.4917,198,473.4917,194,477.4917" style="stroke:#181818;stroke-width:1.0;"/><line style="stroke:#181818;stroke-width:1.0;" x1="194" x2="194" y1="619.8315" y2="633.8315"/><line style="stroke:#181818;stroke-width:1.0;" x1="194" x2="24" y1="633.8315" y2="633.8315"/><polygon fill="#181818" points="34,629.8315,24,633.8315,34,637.8315,30,633.8315" style="stroke:#181818;stroke-width:1.0;"/><line style="stroke:#181818;stroke-width:1.0;" x1="194" x2="194" y1="561.4604" y2="585.8628"/><polygon fill="#181818" points="190,575.8628,194,585.8628,198,575.8628,194,579.8628" style="stroke:#181818;stroke-width:1.0;"/><line style="stroke:#181818;stroke-width:1.0;" x1="262" x2="321" y1="549.4604" y2="549.4604"/><polygon fill="#181818" points="317,607.3472,321,617.3472,325,607.3472,321,611.3472" style="stroke:#181818;stroke-width:1.0;"/><line style="stroke:#181818;stroke-width:1.0;" x1="321" x2="321" y1="549.4604" y2="659.8315"/><line style="stroke:#181818;stroke-width:1.0;" x1="321" x2="194" y1="659.8315" y2="659.8315"/><line style="stroke:#181818;stroke-width:1.0;" x1="194" x2="194" y1="659.8315" y2="679.8315"/><polygon fill="#181818" points="190,669.8315,194,679.8315,198,669.8315,194,673.8315" style="stroke:#181818;stroke-width:1.0;"/><line style="stroke:#181818;stroke-width:1.0;" x1="194" x2="194" y1="517.4604" y2="537.4604"/><polygon fill="#181818" points="190,527.4604,194,537.4604,198,527.4604,194,531.4604" style="stroke:#181818;stroke-width:1.0;"/><line style="stroke:#181818;stroke-width:1.0;" x1="194" x2="194" y1="713.8003" y2="733.8003"/><polygon fill="#181818" points="190,723.8003,194,733.8003,198,723.8003,194,727.8003" style="stroke:#181818;stroke-width:1.0;"/><line style="stroke:#181818;stroke-width:1.0;" x1="194" x2="194" y1="767.769" y2="788.3667"/><polygon fill="#181818" points="190,778.3667,194,788.3667,198,778.3667,194,782.3667" style="stroke:#181818;stroke-width:1.0;"/><line style="stroke:#181818;stroke-width:1.0;" x1="194" x2="194" y1="924.7065" y2="944.7065"/><polygon fill="#181818" points="190,934.7065,194,944.7065,198,934.7065,194,938.7065" style="stroke:#181818;stroke-width:1.0;"/><line style="stroke:#181818;stroke-width:1.0;" x1="194" x2="194" y1="978.6753" y2="998.6753"/><polygon fill="#181818" points="190,988.6753,194,998.6753,198,988.6753,194,992.6753" style="stroke:#181818;stroke-width:1.0;"/><line style="stroke:#181818;stroke-width:1.0;" x1="194" x2="194" y1="866.3354" y2="890.7378"/><polygon fill="#181818" points="190,880.7378,194,890.7378,198,880.7378,194,884.7378" style="stroke:#181818;stroke-width:1.0;"/><line style="stroke:#181818;stroke-width:1.0;" x1="230.5" x2="352" y1="854.3354" y2="854.3354"/><polygon fill="#181818" points="348,951.6909,352,961.6909,356,951.6909,352,955.6909" style="stroke:#181818;stroke-width:1.0;"/><line style="stroke:#181818;stroke-width:1.0;" x1="352" x2="352" y1="854.3354" y2="1064.644"/><line style="stroke:#181818;stroke-width:1.0;" x1="352" x2="206" y1="1064.644" y2="1064.644"/><polygon fill="#181818" points="216,1060.644,206,1064.644,216,1068.644,212,1064.644" style="stroke:#181818;stroke-width:1.0;"/><line style="stroke:#181818;stroke-width:1.0;" x1="194" x2="194" y1="1032.644" y2="1052.644"/><polygon fill="#181818" points="190,1042.644,194,1052.644,198,1042.644,194,1046.644" style="stroke:#181818;stroke-width:1.0;"/><line style="stroke:#181818;stroke-width:1.0;" x1="194" x2="194" y1="822.3354" y2="842.3354"/><polygon fill="#181818" points="190,832.3354,194,842.3354,198,832.3354,194,836.3354" style="stroke:#181818;stroke-width:1.0;"/><line style="stroke:#181818;stroke-width:1.0;" x1="194" x2="194" y1="1076.644" y2="1096.644"/><polygon fill="#181818" points="190,1086.644,194,1096.644,198,1086.644,194,1090.644" style="stroke:#181818;stroke-width:1.0;"/><line style="stroke:#181818;stroke-width:1.0;" x1="194" x2="194" y1="397.8125" y2="429.5229"/><polygon fill="#181818" points="190,419.5229,194,429.5229,198,419.5229,194,423.5229" style="stroke:#181818;stroke-width:1.0;"/><line style="stroke:#181818;stroke-width:1.0;" x1="194" x2="194" y1="1130.6128" y2="1140.6128"/><line style="stroke:#181818;stroke-width:1.0;" x1="194" x2="376" y1="1140.6128" y2="1140.6128"/><polygon fill="#181818" points="372,768.3667,376,758.3667,380,768.3667,376,764.3667" style="stroke:#181818;stroke-width:1.0;"/><line style="stroke:#181818;stroke-width:1.0;" x1="376" x2="376" y1="385.8125" y2="1140.6128"/><line style="stroke:#181818;stroke-width:1.0;" x1="376" x2="263.5" y1="385.8125" y2="385.8125"/><polygon fill="#181818" points="273.5,381.8125,263.5,385.8125,273.5,389.8125,269.5,385.8125" style="stroke:#181818;stroke-width:1.0;"/><line style="stroke:#181818;stroke-width:1.0;" x1="124.5" x2="24" y1="385.8125" y2="385.8125"/><polygon fill="#181818" points="20,754.3667,24,764.3667,28,754.3667,24,758.3667" style="stroke:#181818;stroke-width:1.0;"/><line style="stroke:#181818;stroke-width:1.0;" x1="24" x2="24" y1="385.8125" y2="1152.6128"/><line style="stroke:#181818;stroke-width:1.0;" x1="24" x2="194" y1="1152.6128" y2="1152.6128"/><line style="stroke:#181818;stroke-width:1.0;" x1="194" x2="194" y1="1152.6128" y2="1172.6128"/><polygon fill="#181818" points="190,1162.6128,194,1172.6128,198,1162.6128,194,1166.6128" style="stroke:#181818;stroke-width:1.0;"/><line style="stroke:#181818;stroke-width:1.0;" x1="194" x2="194" y1="353.8125" y2="373.8125"/><polygon fill="#181818" points="190,363.8125,194,373.8125,198,363.8125,194,367.8125" style="stroke:#181818;stroke-width:1.0;"/><!--SRC=[RP9FRy8m3CNl_HI-3IvevtRJXDYGa62Jnj1sgzpMXOYGeCJPr7twEIs5WdRBd-VtVexZ6HqdwLlWOs2uMnZ52hNwLMOBSwK9fbhR4bbP0nzOQ9fC9dTPaZvJhGm1cWfKNoDRc4zR5NXseUJWIBHhOgWTKLxQO1ZOmchwbS-Mc_N7o_iwkwJFHGIb3fx9UIXHbq4ZKnK3PuvaAGb7gupSHvi-B5ASrNB1gC4BZvGjBd3Vw5IKU_XnYfbCjBXlYpsLR5rkmg4zovAVNUnzr0iVEjCycZwDGNaODUJ72S3Lovryqe6Ve8jeGD5TGH7gcboyL3MCV37f3k3n4LutowM4y4w2-vX1q1m5hOgSs8s6u407wves2g2GXzhBYaobwXW-ExzCqJ3vd6qU-wAMR6QF3LJ860qlKEaAtVwq1_HGASVDWBRT_mFv6OtxEd7qqYjkgIDBtydBLsXheTQupMuwEuspnHdCwEOrpuqjJEdeGFAbUl7rBBD4fAT96ZjE1ERu1m00]--></g></svg>