<?xml version="1.0" encoding="us-ascii" standalone="no"?><svg xmlns="http://www.w3.org/2000/svg" xmlns:xlink="http://www.w3.org/1999/xlink" contentStyleType="text/css" height="356px" preserveAspectRatio="none" style="width:547px;height:356px;background:#FFFFFF;" version="1.1" viewBox="0 0 547 356" width="547px" zoomAndPan="magnify"><defs/><g><!--cluster File System--><g id="cluster_File System"><path d="M8.5,6 L99.5,6 A3.75,3.75 0 0 1 102,8.5 L109,28.2969 L426.5,28.2969 A2.5,2.5 0 0 1 429,30.7969 L429,347.39 A2.5,2.5 0 0 1 426.5,349.89 L8.5,349.89 A2.5,2.5 0 0 1 6,347.39 L6,8.5 A2.5,2.5 0 0 1 8.5,6 " fill="none" style="stroke:#000000;stroke-width:1.5;"/><line style="stroke:#000000;stroke-width:1.5;" x1="6" x2="109" y1="28.2969" y2="28.2969"/><text fill="#000000" font-family="sans-serif" font-size="14" font-weight="bold" lengthAdjust="spacing" textLength="90" x="10" y="20.9951">File System</text></g><!--entity FileSystem--><g id="elem_FileSystem"><rect fill="#F1F1F1" height="46.2969" rx="2.5" ry="2.5" style="stroke:#181818;stroke-width:0.5;" width="114" x="129" y="41"/><rect fill="#F1F1F1" height="10" style="stroke:#181818;stroke-width:0.5;" width="15" x="223" y="46"/><rect fill="#F1F1F1" height="2" style="stroke:#181818;stroke-width:0.5;" width="4" x="221" y="48"/><rect fill="#F1F1F1" height="2" style="stroke:#181818;stroke-width:0.5;" width="4" x="221" y="52"/><text fill="#000000" font-family="sans-serif" font-size="14" lengthAdjust="spacing" textLength="74" x="144" y="73.9951">FileSystem</text></g><!--entity FATable--><g id="elem_FATable"><rect fill="#F1F1F1" height="46.2969" rx="2.5" ry="2.5" style="stroke:#181818;stroke-width:0.5;" width="95" x="21.5" y="164.3"/><rect fill="#F1F1F1" height="10" style="stroke:#181818;stroke-width:0.5;" width="15" x="96.5" y="169.3"/><rect fill="#F1F1F1" height="2" style="stroke:#181818;stroke-width:0.5;" width="4" x="94.5" y="171.3"/><rect fill="#F1F1F1" height="2" style="stroke:#181818;stroke-width:0.5;" width="4" x="94.5" y="175.3"/><text fill="#000000" font-family="sans-serif" font-size="14" lengthAdjust="spacing" textLength="55" x="36.5" y="197.2951">FATable</text></g><!--entity FS_FILE--><g id="elem_FS_FILE"><rect fill="#F1F1F1" height="46.2969" rx="2.5" ry="2.5" style="stroke:#181818;stroke-width:0.5;" width="91" x="108.5" y="287.59"/><rect fill="#F1F1F1" height="10" style="stroke:#181818;stroke-width:0.5;" width="15" x="179.5" y="292.59"/><rect fill="#F1F1F1" height="2" style="stroke:#181818;stroke-width:0.5;" width="4" x="177.5" y="294.59"/><rect fill="#F1F1F1" height="2" style="stroke:#181818;stroke-width:0.5;" width="4" x="177.5" y="298.59"/><text fill="#000000" font-family="sans-serif" font-size="14" lengthAdjust="spacing" textLength="51" x="123.5" y="320.5851">FS_FILE</text></g><!--entity SECTOR_BUFFER--><g id="elem_SECTOR_BUFFER"><rect fill="#F1F1F1" height="46.2969" rx="2.5" ry="2.5" style="stroke:#181818;stroke-width:0.5;" width="160" x="253" y="164.3"/><rect fill="#F1F1F1" height="10" style="stroke:#181818;stroke-width:0.5;" width="15" x="393" y="169.3"/><rect fill="#F1F1F1" height="2" style="stroke:#181818;stroke-width:0.5;" width="4" x="391" y="171.3"/><rect fill="#F1F1F1" height="2" style="stroke:#181818;stroke-width:0.5;" width="4" x="391" y="175.3"/><text fill="#000000" font-family="sans-serif" font-size="14" lengthAdjust="spacing" textLength="120" x="268" y="197.2951">SECTOR_BUFFER</text></g><!--entity Clusters--><g id="elem_Clusters"><rect fill="#F1F1F1" height="46.2969" rx="2.5" ry="2.5" style="stroke:#181818;stroke-width:0.5;" width="97" x="444.5" y="287.59"/><rect fill="#F1F1F1" height="10" style="stroke:#181818;stroke-width:0.5;" width="15" x="521.5" y="292.59"/><rect fill="#F1F1F1" height="2" style="stroke:#181818;stroke-width:0.5;" width="4" x="519.5" y="294.59"/><rect fill="#F1F1F1" height="2" style="stroke:#181818;stroke-width:0.5;" width="4" x="519.5" y="298.59"/><text fill="#000000" font-family="sans-serif" font-size="14" lengthAdjust="spacing" textLength="57" x="459.5" y="320.5851">Clusters</text></g><!--link FileSystem to FATable--><g id="link_FileSystem_FATable"><path d="M164.27,87.68 C143.25,109.47 115.7555,137.9716 94.7855,159.7116 " fill="none" id="FileSystem-to-FATable" style="stroke:#181818;stroke-width:1.0;"/><polygon fill="#181818" points="90.62,164.03,99.7472,160.3293,94.0912,160.4313,93.9893,154.7754,90.62,164.03" style="stroke:#181818;stroke-width:1.0;"/><text fill="#000000" font-family="sans-serif" font-size="13" lengthAdjust="spacing" textLength="30" x="136" y="130.3669">uses</text></g><!--link FileSystem to FS_FILE--><g id="link_FileSystem_FS_FILE"><path d="M188.62,87.53 C192.16,123.88 196.41,197.71 181,257.59 C178.36,267.86 176.3289,273.1478 171.3789,282.0378 " fill="none" id="FileSystem-to-FS_FILE" style="stroke:#181818;stroke-width:1.0;"/><polygon fill="#181818" points="168.46,287.28,176.3331,281.3627,170.8924,282.9115,169.3435,277.4709,168.46,287.28" style="stroke:#181818;stroke-width:1.0;"/><text fill="#000000" font-family="sans-serif" font-size="13" lengthAdjust="spacing" textLength="30" x="192" y="192.0069">uses</text></g><!--link FileSystem to SECTOR_BUFFER--><g id="link_FileSystem_SECTOR_BUFFER"><path d="M213.31,87.68 C239.71,109.47 274.8619,138.4716 301.2119,160.2116 " fill="none" id="FileSystem-to-SECTOR_BUFFER" style="stroke:#181818;stroke-width:1.0;"/><polygon fill="#181818" points="305.84,164.03,301.4434,155.2169,301.9832,160.848,296.3522,161.3878,305.84,164.03" style="stroke:#181818;stroke-width:1.0;"/><text fill="#000000" font-family="sans-serif" font-size="13" lengthAdjust="spacing" textLength="30" x="269" y="130.3669">uses</text></g><!--link FATable to FS_FILE--><g id="link_FATable_FS_FILE"><path d="M84.79,210.98 C100.06,232.76 119.6159,260.6769 134.8559,282.4169 " fill="none" id="FATable-to-FS_FILE" style="stroke:#181818;stroke-width:1.0;"/><polygon fill="#181818" points="138.3,287.33,136.4092,277.6643,135.4299,283.2358,129.8585,282.2565,138.3,287.33" style="stroke:#181818;stroke-width:1.0;"/><text fill="#000000" font-family="sans-serif" font-size="13" lengthAdjust="spacing" textLength="54" x="118" y="253.6569">contains</text></g><!--link SECTOR_BUFFER to Clusters--><g id="link_SECTOR_BUFFER_Clusters"><path d="M362.72,210.98 C391.37,232.69 429.6987,261.7552 458.3887,283.5052 " fill="none" id="SECTOR_BUFFER-to-Clusters" style="stroke:#181818;stroke-width:1.0;"/><polygon fill="#181818" points="463.17,287.13,458.4145,278.5053,459.1856,284.1094,453.5815,284.8804,463.17,287.13" style="stroke:#181818;stroke-width:1.0;"/><text fill="#000000" font-family="sans-serif" font-size="13" lengthAdjust="spacing" textLength="34" x="423" y="253.6569">holds</text></g><!--SRC=[AqXCpavCJrLGSilCILK8hYmkISrLKgZcKW22Q90OH2WMAk0OafYKamhZ1SUxUVguGdd1hiuX_a7nJg5kRgv1iLorN0ZT2hgwTWfGlGfM2gN5gSKOiX2pSCYYc0rN0pKGLNjoVbv9OcPUCHUg7f2YQEUSKg2HHSMnG7KP-JafnG00]--></g></svg>